<svg width="186" height="88" viewBox="0 0 186 88" fill="none" xmlns="http://www.w3.org/2000/svg">
<path fill-rule="evenodd" clip-rule="evenodd" d="M11.1479 26.2419V9.21768H17.6111C20.2128 9.21768 22.5337 9.91576 24.227 11.4371C25.9469 12.9834 26.7912 15.1769 26.7912 17.6829C26.7912 20.1769 25.9478 22.3837 24.2426 23.952C22.5566 25.5028 20.2348 26.2419 17.6111 26.2419H11.1479ZM13.0215 24.3608H17.6111C22.1778 24.3608 24.9177 21.7979 24.9177 17.6829C24.9177 13.5442 22.1778 11.0988 17.6111 11.0988H13.0215V24.3608Z" fill="#333332"/>
<path fill-rule="evenodd" clip-rule="evenodd" d="M0 0.658356V86.4387H13.0215V72.142H20.2339C31.1714 72.142 38.5009 65.6756 38.5009 55.3058C38.5009 45.0534 31.358 38.2813 20.7022 38.2813H13.0215V34.519H20.2339C31.1714 34.519 38.5009 28.0526 38.5009 17.6829C38.5009 7.43045 31.358 0.658356 20.7022 0.658356H0ZM11.1479 32.6379H20.2339C25.3413 32.6379 29.4259 31.1315 32.2106 28.5961C34.9752 26.0789 36.6273 22.3981 36.6273 17.6829C36.6273 13.0128 35.0118 9.27003 32.3076 6.68965C29.5933 4.10055 25.6331 2.53951 20.7022 2.53951H1.87354V38.2813H11.1479V32.6379ZM1.87354 46.9346V40.1625H11.1479V46.9346H1.87354ZM13.0215 46.8407V40.1625H20.7022C25.6331 40.1625 29.5933 41.7235 32.3076 44.3126C35.0118 46.893 36.6273 50.6358 36.6273 55.3058C36.6273 60.0211 34.9752 63.7019 32.2106 66.2189C29.4259 68.7543 25.3413 70.2609 20.2339 70.2609H11.1479V84.5576H1.87354V48.8157H11.1479V63.8649H17.6111C20.2348 63.8649 22.5566 63.1257 24.2426 61.575C25.9478 60.0064 26.7912 57.7999 26.7912 55.3058C26.7912 52.7996 25.9469 50.6064 24.227 49.0601C22.5337 47.5385 20.2128 46.8407 17.6111 46.8407H13.0215ZM13.0215 48.7218H17.6111C22.1778 48.7218 24.9177 51.1672 24.9177 55.3058C24.9177 59.4209 22.1778 61.9838 17.6111 61.9838H13.0215V48.7218Z" fill="#333332"/>
<path fill-rule="evenodd" clip-rule="evenodd" d="M45.0701 24.7372C45.0701 33.1146 47.8722 39.5039 52.4271 43.689C47.6453 47.8497 44.6841 54.3565 44.6841 63.0185C44.6841 79.0083 54.8952 87.7557 68.01 87.7557C81.0306 87.7557 91.335 79.1022 91.335 63.0185C91.335 54.6032 88.5137 48.2221 83.9589 44.0502C88.7397 39.8888 91.7211 33.3876 91.7211 24.7372C91.7211 8.65324 81.4166 0 68.3952 0C55.2804 0 45.0701 8.65324 45.0701 24.7372ZM83.6241 7.67478C79.823 3.901 74.4915 1.88115 68.3952 1.88115C62.2494 1.88115 56.9206 3.9026 53.1342 7.67294C49.3551 11.4348 46.9437 17.1069 46.9437 24.7372C46.9437 32.3178 49.3542 37.9922 53.1361 41.7679C53.3904 42.0223 53.6529 42.2687 53.921 42.5073C56.5355 40.6296 59.5928 39.3652 62.941 38.739C61.6082 38.0464 60.4518 37.062 59.5041 35.7839C57.4933 33.0733 56.5922 29.2719 56.5922 24.7372C56.5922 20.2024 57.4933 16.401 59.5041 13.6905C61.5807 10.8908 64.6581 9.4999 68.3952 9.4999C72.1331 9.4999 75.2096 10.8908 77.2872 13.6905C79.2979 16.401 80.199 20.2024 80.199 24.7372C80.199 29.2719 79.2979 33.0733 77.2872 35.7839C76.7081 36.5642 76.0512 37.2351 75.324 37.7971C74.7934 38.2072 74.2253 38.5592 73.6224 38.8534C76.9212 39.5519 79.931 40.8861 82.4961 42.8304C82.6717 42.6827 82.8446 42.5316 83.0148 42.3773C83.2225 42.1897 83.4256 41.997 83.6241 41.7995C87.4151 38.0352 89.8475 32.3623 89.8475 24.7372C89.8475 17.1118 87.4151 11.4389 83.6241 7.67478ZM83.238 45.9561C82.9874 45.7072 82.7294 45.4659 82.4659 45.2323C79.8486 47.1149 76.7932 48.3836 73.4568 49.0128C74.7925 49.7056 75.9515 50.6914 76.9011 51.9718C78.9119 54.6824 79.813 58.4837 79.813 63.0185C79.813 67.5533 78.9119 71.3546 76.9011 74.0652C74.8245 76.8649 71.747 78.2558 68.01 78.2558C64.2721 78.2558 61.1947 76.8649 59.118 74.0652C57.1073 71.3546 56.2062 67.5533 56.2062 63.0185C56.2062 58.4837 57.1073 54.6824 59.118 51.9718C60.1188 50.6223 61.3529 49.6002 62.7809 48.9032C59.4675 48.2022 56.4532 46.8609 53.888 44.9108C53.4938 45.2422 53.1141 45.5901 52.7482 45.9543C48.97 49.7161 46.5576 55.3883 46.5576 63.0185C46.5576 70.5991 48.9682 76.2736 52.75 80.0492C56.5392 83.8329 61.8698 85.8745 68.01 85.8745C74.1054 85.8745 79.437 83.8544 83.238 80.0809C87.029 76.3165 89.4615 70.6437 89.4615 63.0185C89.4615 55.3931 87.029 49.7203 83.238 45.9561ZM68.3952 47.5932C73.1641 47.5932 77.4655 46.3568 80.9318 44.0118C77.4006 41.493 72.9573 40.1625 68.01 40.1625C63.2109 40.1625 58.9095 41.3949 55.4524 43.7301C58.9753 46.2524 63.4195 47.5932 68.3952 47.5932ZM68.3952 38.0933C74.8592 38.0933 78.3255 33.3904 78.3255 24.7372C78.3255 16.0839 74.8592 11.381 68.3952 11.381C61.932 11.381 58.4658 16.0839 58.4658 24.7372C58.4658 33.3904 61.932 38.0933 68.3952 38.0933ZM68.01 76.3746C74.4732 76.3746 77.9394 71.6718 77.9394 63.0185C77.9394 54.3653 74.4732 49.6624 68.01 49.6624C61.5459 49.6624 58.0797 54.3653 58.0797 63.0185C58.0797 71.6718 61.5459 76.3746 68.01 76.3746Z" fill="#333332"/>
<path fill-rule="evenodd" clip-rule="evenodd" d="M118.178 29.9103C123.518 31.086 125.345 32.4264 125.392 34.6132C125.349 36.8103 123.501 38.404 119.924 38.6302C119.657 38.6233 119.387 38.6198 119.115 38.6198C118.799 38.6198 118.485 38.6246 118.174 38.6341C113.7 38.3778 111.07 36.0495 110.872 31.8854H98.5063C98.509 32.5316 98.5346 33.1585 98.5822 33.7665C98.9499 38.3966 100.626 41.9316 103.358 44.4573C101.014 46.9807 99.6955 50.2165 99.7239 53.9512C99.701 61.4758 104.9 65.6613 113.401 67.4954L118.178 68.5301C123.518 69.7059 125.345 71.0462 125.392 73.233C125.345 75.6079 123.19 77.2775 119.022 77.2775C114.033 77.2775 111.082 74.9261 110.872 70.5052H98.5063C98.509 71.1514 98.5346 71.7783 98.5831 72.3864C99.4366 83.1545 107.372 88 119.209 88C131.364 88 138.646 82.7327 138.694 73.233C138.646 65.8965 134.291 60.7468 123.706 58.466L119.771 57.6194C115.227 56.6554 113.19 55.315 113.307 53.0107C113.329 51.0558 114.829 49.5825 118.232 49.3689C118.554 49.3765 118.88 49.3802 119.209 49.3802C119.478 49.3802 119.746 49.3776 120.012 49.3724C123.614 49.6234 125.341 51.4308 125.579 54.3274H138.038C138.034 53.6853 137.998 53.058 137.929 52.4462C137.587 49.41 136.448 46.7612 134.619 44.6167C137.248 42.1628 138.673 38.7989 138.694 34.6132C138.646 27.2767 134.291 22.1269 123.706 19.8462L119.771 18.9996C115.227 18.0356 113.19 16.6952 113.307 14.3908C113.331 12.2745 115.087 10.7225 119.115 10.7225C123.331 10.7225 125.321 12.5802 125.579 15.7076H138.038C138.034 15.0655 137.998 14.4381 137.929 13.8264C136.984 5.43379 129.942 0 119.115 0C107.71 0 99.6534 6.16081 99.7239 15.3314C99.701 22.856 104.9 27.0415 113.401 28.8756L118.178 29.9103ZM133.309 43.2713C135.553 41.1929 136.799 38.3307 136.821 34.6146C136.798 31.3536 135.833 28.7302 133.81 26.6472C131.741 24.5176 128.4 22.7816 123.312 21.6856L119.383 20.8401C117.056 20.3459 115.103 19.7084 113.721 18.7412C113.003 18.2397 112.389 17.6149 111.974 16.8291C111.559 16.0433 111.396 15.1966 111.434 14.3323C111.463 12.6991 112.194 11.2169 113.648 10.2127C115.027 9.26108 116.902 8.84131 119.115 8.84131C121.469 8.84131 123.499 9.35707 125.007 10.5778C125.682 11.1236 126.201 11.7687 126.586 12.4837C126.813 12.9088 126.994 13.3584 127.133 13.8264H136.043C135.618 10.4869 134.101 7.75469 131.714 5.75275C128.859 3.35769 124.602 1.88115 119.115 1.88115C113.732 1.88115 109.3 3.33633 106.268 5.71004C103.273 8.05551 101.567 11.3457 101.597 15.3169V15.3372C101.587 18.6078 102.689 21.0252 104.646 22.8636C106.663 24.7585 109.722 26.1579 113.795 27.0365L118.58 28.0728C121.291 28.6696 123.372 29.3567 124.808 30.3168C125.133 30.5338 125.435 30.771 125.707 31.0321C126.062 31.371 126.37 31.7499 126.616 32.1761C127.058 32.9403 127.247 33.7541 127.264 34.5728L127.265 34.6116L127.264 34.6504C127.229 36.4803 126.345 38.0501 124.793 39.0906C124.76 39.1128 124.727 39.1347 124.693 39.1562C128.196 39.8734 131.107 41.2884 133.309 43.2713ZM119.954 40.5127C125.038 40.6557 129.006 42.1011 131.714 44.3726C131.745 44.3983 131.775 44.4242 131.805 44.4502C129.054 46.282 125.119 47.3808 120.053 47.4901C119.746 47.4708 119.434 47.4611 119.115 47.4611C118.803 47.4611 118.498 47.4694 118.199 47.4864C113.196 47.3606 109.172 46.29 106.249 44.345C106.256 44.34 106.262 44.3349 106.268 44.3299C109.117 42.099 113.203 40.6794 118.153 40.5166C118.439 40.5315 118.729 40.5389 119.022 40.5389C119.338 40.5389 119.649 40.5301 119.954 40.5127ZM113.204 39.2228C112.766 38.9801 112.354 38.7013 111.969 38.3849C110.536 37.208 109.632 35.6256 109.23 33.7665H100.462C100.824 37.9713 102.359 41.0216 104.725 43.1626C106.955 41.2994 109.841 39.9464 113.204 39.2228ZM104.82 45.6427C102.731 47.8444 101.573 50.6585 101.597 53.9368V53.957C101.587 57.2276 102.689 59.645 104.646 61.4834C106.663 63.3783 109.722 64.7777 113.795 65.6563L118.58 66.6926C121.291 67.2894 123.372 67.9765 124.808 68.9366C125.068 69.1104 125.313 69.2971 125.541 69.4987C125.966 69.8756 126.331 70.3043 126.616 70.7959C127.058 71.5601 127.247 72.374 127.264 73.1926L127.265 73.2314L127.264 73.2702C127.229 75.1002 126.345 76.6699 124.793 77.7104C123.311 78.7033 121.321 79.1587 119.022 79.1587C116.258 79.1587 113.798 78.5091 111.969 77.0047C110.536 75.8279 109.632 74.2452 109.23 72.3864H100.462C100.856 76.9489 102.629 80.1521 105.347 82.3095C108.499 84.8109 113.185 86.1189 119.209 86.1189C125.051 86.1189 129.463 84.8478 132.372 82.6707C135.204 80.551 136.797 77.4394 136.821 73.2344C136.798 69.9734 135.833 67.3501 133.81 65.2671C131.741 63.1375 128.4 61.4014 123.312 60.3054L119.383 59.4599C117.056 58.9657 115.103 58.3283 113.721 57.3611C113.466 57.1833 113.225 56.9902 113.001 56.7799C112.593 56.3966 112.242 55.9564 111.974 55.4489C111.559 54.6631 111.396 53.8164 111.434 52.9521C111.462 51.3807 112.14 49.949 113.486 48.9485C110.086 48.396 107.16 47.3066 104.82 45.6427ZM124.711 48.9717C128.1 48.4318 130.943 47.3626 133.161 45.7991C134.716 47.6065 135.712 49.8417 136.043 52.4462H127.133C126.763 51.1906 126.082 50.0677 125.008 49.1976C124.911 49.1193 124.812 49.0442 124.711 48.9717Z" fill="#333332"/>
<path fill-rule="evenodd" clip-rule="evenodd" d="M158.74 11.1927V38.2813H144.314V48.8157H158.74V86.4387H171.573V48.8157H186V38.2813H171.573V11.1927H186V0.658356H144.314V11.1927H158.74ZM160.614 9.3116V38.2813H169.7V9.3116H184.126V2.53951H146.187V9.3116H160.614ZM146.187 46.9346H158.74V40.1625H146.187V46.9346ZM160.614 40.1625V46.9346H169.7V40.1625H160.614ZM160.614 84.5576V48.8157H169.7V84.5576H160.614ZM184.126 46.9346H171.573V40.1625H184.126V46.9346Z" fill="#333332"/>
</svg>
