<svg width="318" height="137" viewBox="0 0 318 137" fill="none" xmlns="http://www.w3.org/2000/svg">
<path fill-rule="evenodd" clip-rule="evenodd" d="M62.9981 0.243058C61.936 0.459109 60.8963 0.772338 59.8566 1.15043C57.7432 1.91734 55.7202 3.06246 53.7346 4.34249C53.4831 4.50453 53.2428 4.69889 52.9952 4.87177C52.7526 5.04477 52.5111 5.21924 52.2697 5.39371C52.0364 5.5623 51.8031 5.73078 51.5688 5.89802L51.3956 6.02367L51.201 6.16413L51.1785 6.1804C50.9976 6.31091 50.817 6.44108 50.6379 6.57306C50.4655 6.69702 50.3001 6.84064 50.137 6.98234L50.0306 7.07466C49.9878 7.1115 49.9449 7.148 49.9021 7.18348C49.624 7.41411 49.3465 7.64473 49.0692 7.8757C48.5868 8.27741 48.1052 8.6799 47.6238 9.08455C47.5015 9.18817 47.3826 9.30489 47.2639 9.42072L47.2591 9.4258C47.1941 9.48964 47.1294 9.55315 47.0646 9.61394C46.8791 9.79191 46.6935 9.97067 46.5078 10.1495C46.1975 10.4484 45.8867 10.7479 45.5745 11.0452C45.3906 11.2235 45.1954 11.3908 45.0189 11.5853C44.7299 11.9039 44.4372 12.2226 44.1482 12.5413C43.962 12.7458 43.7742 12.948 43.5862 13.1504C43.1834 13.5842 42.7805 14.0182 42.3915 14.4749C42.0196 14.9141 41.6488 15.3533 41.278 15.7926L40.5436 16.6622H0V27.0297H14.2882V62.2054H2.04046V109.6H20.3182C34.7922 109.6 43.9774 100.714 43.9774 85.9027C43.9774 73.5644 37.6028 65.3374 26.9993 62.9345V38.8386L28.1394 36.9703C28.8151 35.8685 29.4756 34.745 30.1851 33.6865C30.5602 33.1244 30.9353 32.5631 31.3106 32.0019C31.8114 31.2529 32.3127 30.5041 32.8147 29.7544L33.1728 29.2198C33.3087 29.0178 33.4487 28.8237 33.5896 28.6318C33.6784 28.5106 33.7674 28.3903 33.856 28.2692L34.7489 27.0297H41.2875V18.5937L41.6243 18.2003C42.2545 17.4641 42.8853 16.7272 43.5176 15.9925C43.656 15.8418 43.7948 15.6916 43.9339 15.5416L44.1183 15.3428C44.3212 15.1242 44.5242 14.9055 44.7262 14.6855C44.9813 14.4047 45.2366 14.1292 45.4919 13.8537C45.5245 13.8185 45.5573 13.7824 45.5902 13.746C45.6253 13.7073 45.6604 13.6683 45.696 13.6295C45.7496 13.5712 45.804 13.5138 45.8597 13.4595C46.3889 12.9572 46.9219 12.4548 47.4512 11.9471C47.5323 11.8696 47.6134 11.7914 47.6945 11.7131C47.9919 11.4257 48.29 11.1378 48.5997 10.8831C49.2303 10.3647 49.8609 9.84073 50.4915 9.31687C50.8331 9.03596 51.1672 8.73358 51.5163 8.47967C51.782 8.28972 52.047 8.09977 52.3118 7.90983C52.657 7.66225 53.0018 7.41478 53.3479 7.16721L53.5905 6.9924L53.5946 6.98935C53.8415 6.81126 54.0872 6.63397 54.335 6.45973C54.7104 6.18966 55.097 5.95203 55.4873 5.70897C57.9949 4.20746 60.5959 3.05161 63.2872 2.47905C63.7377 2.39803 64.1842 2.33871 64.6384 2.30086C65.194 2.25227 65.7494 2.33329 66.3012 2.43589C66.4251 2.46346 66.5474 2.49465 66.6691 2.52922C66.8093 2.56911 66.9488 2.61352 67.0895 2.66267C67.5323 2.80313 67.9527 3.03545 68.3731 3.26766C68.5983 3.41343 68.8198 3.57016 69.0375 3.74293C69.2516 3.90497 69.4579 4.08859 69.6532 4.29391C69.7293 4.38351 69.8022 4.47888 69.8718 4.579C69.9529 4.69595 70.029 4.81923 70.0999 4.94737C70.0584 4.87177 70.0172 4.79076 69.976 4.71516C70.145 5.01223 70.2949 5.33088 70.4301 5.66027C70.644 6.13565 70.8093 6.65951 70.9745 7.16721C71.3722 8.63086 71.6499 10.1271 71.8302 11.6772C71.8753 12.3685 71.8977 13.0435 71.9016 13.7403C71.9052 14.6909 71.8302 15.6415 71.755 16.5867C71.5224 18.8984 71.1471 21.156 70.7004 23.3975C70.2086 25.855 69.5705 28.2476 68.9288 30.6294C68.4721 32.1449 68.0139 33.6603 67.555 35.1757H59.0377V16.6622H46.1411V64.0567H46.1488V96.8988C46.0221 97.2884 45.8957 97.6778 45.7696 98.0673C45.7182 98.2244 45.6661 98.3817 45.614 98.5391L45.6051 98.5666C45.5021 98.8781 45.399 99.1903 45.2991 99.5045C45.2411 99.6872 45.184 99.8705 45.1288 100.055L45.1208 100.081L45.1204 100.082L45.0939 100.168L45.0907 100.181L45.0871 100.194L45.0846 100.203L45.083 100.209L45.0819 100.212L45.0807 100.214L45.0773 100.231L45.0678 100.26L45.0642 100.273L45.0565 100.298L45.0563 100.302C45.0477 100.332 45.0375 100.361 45.0286 100.39C45.0237 100.407 45.0198 100.424 45.0146 100.441L45.0001 100.487L43.1196 106.887L43.106 106.935L43.0901 106.991C42.9547 107.473 42.8296 107.963 42.7046 108.452L42.7039 108.455C42.6794 108.552 42.655 108.648 42.6301 108.744L42.5716 108.972C42.2187 110.344 41.866 111.71 41.5131 113.082C41.4341 113.388 41.3618 113.698 41.2925 114.01L41.2273 114.308L41.126 114.78C41.0827 114.983 41.0395 115.186 40.9951 115.388C40.9051 115.805 40.8139 116.222 40.7221 116.639L40.526 117.527C40.5063 117.616 40.4859 117.705 40.4653 117.794L40.4127 118.022C40.3685 118.215 40.3257 118.41 40.2895 118.607C40.0718 119.807 39.858 121 39.6401 122.199C39.4964 122.993 39.3746 123.794 39.2532 124.594C39.216 124.838 39.1789 125.082 39.141 125.326C38.989 126.291 38.8552 127.262 38.7215 128.232V128.234L38.7168 128.27C38.5967 129.129 38.5179 129.998 38.4615 130.873C38.4316 131.386 38.4391 131.9 38.4916 132.407C38.514 132.791 38.5704 133.169 38.6642 133.536L38.7961 133.979C38.8423 134.135 38.8885 134.291 38.9345 134.449C38.9736 134.53 39.0128 134.613 39.052 134.697C39.088 134.773 39.1238 134.849 39.1596 134.924C39.2874 135.2 39.4486 135.437 39.6326 135.637C39.918 136.015 40.2632 136.264 40.6048 136.507C40.6875 136.555 40.7699 136.609 40.8562 136.663C41.1303 136.82 41.4119 136.906 41.7084 136.933C41.8021 136.955 41.8959 136.971 41.9899 136.987C42.3052 137.014 42.6242 136.998 42.9356 136.939C43.8365 136.831 44.7036 136.426 45.5369 135.945C46.5504 135.356 47.4811 134.53 48.4008 133.687C49.2604 132.893 50.0974 132.067 50.9156 131.187C51.1249 130.961 51.3319 130.732 51.5374 130.499C51.6696 130.349 51.8015 130.198 51.9326 130.046C52.2966 129.625 52.6568 129.197 53.0165 128.769L53.1415 128.621C53.9185 127.692 54.6916 126.763 55.45 125.807L59.9841 120.093C60.6877 119.205 61.4051 118.335 62.122 117.465L62.1682 117.409C62.4264 117.096 62.6847 116.783 62.942 116.469C64.2743 114.838 65.5918 113.174 66.9694 111.618C68.0082 110.448 69.0452 109.275 70.0829 108.103C73.4371 109.931 77.745 110.803 82.7603 110.803C94.7985 110.803 102.012 105.62 102.059 96.2703C102.028 91.5662 100.187 87.7757 96.0072 85.0843C97.1241 84.4317 98.2413 83.7817 99.3583 83.1279C99.4228 83.0914 99.4883 83.0577 99.5537 83.0247L99.5986 83.002C99.6439 82.9793 99.689 82.9567 99.7336 82.9334C100.147 82.7336 100.556 82.5337 100.969 82.3285C101.854 81.8964 102.737 81.4643 103.619 81.0322C104.144 80.7784 104.688 80.5948 105.221 80.3787L106.889 79.7193V109.6H119.785V95.5297H121.721C121.449 98.0526 121.108 100.563 120.767 103.07L120.763 103.096C120.68 103.711 120.596 104.327 120.513 104.943C120.404 105.753 120.307 106.563 120.209 107.373C120.167 107.709 120.124 108.046 120.08 108.382L120.077 108.405C119.98 109.153 119.882 109.903 119.807 110.657C119.735 111.381 119.662 112.104 119.59 112.828C119.554 113.189 119.518 113.549 119.483 113.911L119.428 114.47C119.342 115.356 119.274 116.253 119.214 117.144C119.19 117.517 119.174 117.893 119.163 118.268C119.153 118.587 119.146 118.905 119.139 119.223C119.129 119.671 119.132 120.12 119.151 120.568C119.168 120.989 119.201 121.41 119.252 121.827C119.278 122.048 119.308 122.264 119.334 122.485C119.394 122.928 119.477 123.36 119.586 123.782C119.64 124.02 119.71 124.249 119.79 124.47C119.893 124.754 120.012 125.027 120.134 125.294C120.348 125.764 120.622 126.18 120.892 126.585C121.151 126.979 121.497 127.287 121.804 127.584C122.038 127.807 122.325 127.961 122.599 128.107C122.677 128.149 122.754 128.19 122.829 128.232C123.07 128.369 123.322 128.454 123.576 128.521C123.712 128.557 123.848 128.587 123.984 128.617L124.049 128.632C124.424 128.718 124.803 128.751 125.182 128.767C125.757 128.794 126.342 128.632 126.905 128.497C127.851 128.27 128.771 127.757 129.66 127.26C130.542 126.769 131.387 126.158 132.213 125.499C133.028 124.854 133.805 124.118 134.582 123.383L134.806 123.171C135.809 122.226 136.781 121.232 137.734 120.19C138.496 119.358 139.243 118.505 139.986 117.646C140.418 117.149 140.857 116.663 141.277 116.15L141.333 116.082C141.941 115.343 142.55 114.605 143.158 113.871C143.826 113.061 144.495 112.249 145.164 111.437C145.669 110.825 146.173 110.213 146.677 109.6H154.306L157.043 100.528H166.023C165.986 100.885 165.951 101.242 165.919 101.6C165.855 102.307 165.81 102.998 165.788 103.711C165.771 104.289 165.812 104.87 165.853 105.445L165.87 105.688C165.908 106.244 165.979 106.801 166.047 107.346C166.144 108.102 166.351 108.788 166.557 109.491C166.718 110.045 166.964 110.558 167.202 111.055L167.3 111.262C167.531 111.75 167.806 112.195 168.078 112.634L168.085 112.645C168.655 113.579 169.395 114.281 170.142 114.886C170.224 114.952 170.309 115.016 170.394 115.077C170.665 115.271 170.946 115.443 171.223 115.599C171.666 115.848 172.109 116.074 172.567 116.274C173.554 116.717 174.582 116.928 175.603 117.117C176.639 117.311 177.69 117.3 178.73 117.246C179.315 117.217 179.901 117.147 180.486 117.052C180.876 116.988 181.266 116.913 181.654 116.83C183.917 116.355 186.147 115.664 188.343 114.74C190.369 113.887 192.348 112.801 194.307 111.683C195.488 111.006 196.666 110.31 197.84 109.6H209.881V101.467C210.572 100.959 211.262 100.449 211.951 99.9394L211.953 99.938L212.511 99.5255C213.405 98.8666 214.305 98.2239 215.191 97.5433L216.978 96.1715C218.748 94.8103 220.518 93.4506 222.287 92.0909C223.712 90.9963 225.137 89.9017 226.561 88.8064C227.938 102.3 237.239 109.6 249.302 109.6C262.167 109.6 269.165 101.374 270.663 93.7692C270.785 93.1469 270.871 92.5287 270.92 91.9196L257.838 91.827C257.189 95.8768 254.313 98.3994 249.581 98.3994C243.295 98.3994 239.653 93.9561 239.653 85.2547C239.653 82.025 240.195 79.3075 241.245 77.197C243.269 75.5837 245.292 73.9676 247.315 72.3505C248.051 72.1914 248.838 72.1101 249.674 72.1101C254.637 72.1101 257.467 75.0261 257.838 79.3304H270.92C270.865 78.6985 270.789 78.0813 270.69 77.479C269.526 70.3352 265.362 65.2955 259.305 62.7679C261.805 60.7704 264.305 58.7729 266.804 56.7753C271.652 52.9017 276.499 49.0277 281.347 45.1527L285.205 42.069C286.608 40.9474 288.011 39.828 289.414 38.7087L289.429 38.6968C292.366 36.3543 295.302 34.012 298.23 31.6503C298.737 31.2397 298.902 30.2568 298.613 29.5439C298.312 28.8093 297.659 28.5878 297.149 28.9929C291.988 33.0869 286.845 37.2188 281.692 41.3344C276.013 45.8713 270.334 50.4082 264.659 54.945L257.665 60.5341C257.168 60.932 256.67 61.3298 256.172 61.7277C254.045 61.1867 251.743 60.9095 249.302 60.9095C236.498 60.9095 226.385 69.4257 226.385 85.2547C226.385 85.3154 226.386 85.3758 226.386 85.4363C225.078 86.4447 223.77 87.4515 222.461 88.4587C221.544 89.1641 220.627 89.8696 219.71 90.576C217.759 92.0775 215.803 93.5843 213.851 95.0858C212.894 95.8204 211.922 96.5117 210.957 97.2301C210.599 97.4961 210.24 97.7617 209.881 98.0269V72.573H224.17V62.2054H182.882V72.573H197.17V106.722C194.731 108.195 192.29 109.651 189.791 110.9C186.98 112.31 184.079 113.304 181.136 113.941C180.16 114.119 179.192 114.243 178.208 114.297C177.236 114.351 176.267 114.265 175.303 114.103C174.838 113.999 174.377 113.878 173.918 113.732C173.803 113.695 173.688 113.657 173.573 113.617C172.961 113.412 172.367 113.109 171.782 112.785C171.572 112.655 171.369 112.515 171.167 112.364C170.787 112.099 170.442 111.759 170.104 111.408C169.976 111.253 169.852 111.094 169.732 110.929C169.654 110.823 169.578 110.715 169.504 110.603C169.314 110.312 169.135 110.013 168.964 109.7L168.96 109.693L168.957 109.687C168.86 109.495 168.767 109.299 168.679 109.099C168.614 108.951 168.551 108.801 168.49 108.648C168.336 108.275 168.205 107.886 168.092 107.481C168.126 107.595 168.16 107.708 168.194 107.816C168.129 107.57 168.071 107.322 168.022 107.069C167.991 106.912 167.963 106.752 167.938 106.59C167.902 106.355 167.87 106.117 167.843 105.878C167.833 105.793 167.823 105.708 167.815 105.623C167.766 104.981 167.732 104.349 167.717 103.701C167.704 103.088 167.755 102.472 167.806 101.863L167.826 101.627C167.852 101.346 167.88 101.065 167.908 100.785C167.916 100.699 167.926 100.614 167.934 100.528H172.722L175.46 109.6H189.377L173.697 62.2054H156.068L140.388 109.6H143.235C142.617 110.339 141.999 111.078 141.382 111.818L139.843 113.66C139.152 114.487 138.442 115.28 137.731 116.074L137.329 116.523C136.131 117.841 134.915 119.099 133.65 120.276C133.219 120.679 132.784 121.075 132.346 121.464C132.061 121.718 131.773 121.968 131.485 122.215C131.141 122.508 130.793 122.782 130.439 123.042C130.273 123.163 130.107 123.281 129.939 123.397C129.744 123.532 129.547 123.664 129.349 123.792C129.095 123.937 128.841 124.076 128.586 124.21C128.288 124.366 127.989 124.514 127.686 124.657C127.112 124.927 126.526 125.105 125.929 125.24C125.817 125.257 125.704 125.27 125.591 125.279C125.459 125.289 125.326 125.294 125.194 125.294C125.101 125.292 125.008 125.287 124.916 125.28C124.794 125.272 124.673 125.258 124.552 125.24C124.327 125.191 124.101 125.121 123.88 125.035C123.7 124.965 123.523 124.883 123.351 124.786C123.174 124.667 123.009 124.533 122.848 124.376C122.802 124.32 122.756 124.264 122.711 124.207L122.656 124.138L122.623 124.095C122.416 123.809 122.228 123.495 122.059 123.155L122.251 123.512C122.183 123.378 122.12 123.24 122.061 123.098C122.012 122.981 121.967 122.861 121.924 122.739L121.801 122.205C121.729 121.816 121.669 121.421 121.62 121.022L121.618 121C121.608 120.883 121.597 120.766 121.59 120.649C121.576 120.389 121.567 120.129 121.564 119.868C121.56 119.652 121.561 119.436 121.564 119.218C121.564 118.526 121.586 117.83 121.617 117.138C121.637 116.649 121.667 116.16 121.703 115.671C121.727 115.35 121.753 115.029 121.782 114.708C121.827 114.187 121.874 113.667 121.921 113.146L122.093 111.257L122.179 110.51C122.284 109.586 122.39 108.661 122.499 107.737C122.597 106.911 122.697 106.085 122.803 105.261C122.882 104.642 122.962 104.024 123.043 103.405C123.383 100.787 123.724 98.167 123.98 95.5297H126.929C137.762 95.5297 145.022 89.1657 145.022 78.9602C145.022 69.4817 138.779 63.0257 129.273 62.278V53.6892H108.026V45.5432H127.603V35.1757H108.026V27.0297H129.365V16.6622H95.1294V64.0567H106.889V76.3958C106.855 76.4089 106.82 76.4224 106.786 76.4359C106.507 76.5488 106.227 76.6612 105.947 76.7734L105.348 77.0131C104.877 77.2019 104.405 77.3907 103.934 77.5809L103.671 77.6874C103.52 77.7486 103.371 77.809 103.221 77.8673C102.939 77.9806 102.665 78.1426 102.387 78.2777C101.891 78.5223 101.395 78.7671 100.899 79.0125C100.432 79.2438 99.9651 79.4758 99.4971 79.709C99.2869 79.8116 99.0767 79.9142 98.8665 80.0222C98.6742 80.117 98.4837 80.2358 98.2936 80.3542L98.2902 80.3563C98.2107 80.4059 98.1314 80.4554 98.0522 80.5029C97.1101 81.0592 96.1678 81.6102 95.2257 82.1665C95.1226 82.2285 95.0193 82.2893 94.9161 82.3501L94.7382 82.4551L94.6064 82.5337C94.3692 82.6718 94.1407 82.8314 93.9108 82.9916L93.7459 83.1062L93.6831 83.1494C93.4885 83.284 93.294 83.4184 93.0992 83.5525C91.4057 82.8232 89.45 82.216 87.2136 81.7372L83.3169 80.9041C78.8171 79.9552 76.7991 78.6361 76.9151 76.3682C76.9382 74.2855 78.6778 72.7581 82.6674 72.7581C86.8426 72.7581 88.8142 74.5863 89.0692 77.6642H101.409C101.406 77.0322 101.37 76.4148 101.302 75.8129C100.566 69.3181 96.096 64.6238 89.0058 62.9142V16.6622H76.1093V35.1757H69.3324L70.3663 31.7259C70.554 31.1047 70.7153 30.4674 70.8843 29.8355C71.331 28.1504 71.7439 26.4544 72.1193 24.7368C72.4269 23.3326 72.6747 21.9013 72.9073 20.4701C73.11 19.2062 73.2677 17.9153 73.3692 16.6245C73.4254 15.9008 73.4704 15.177 73.5006 14.4533C73.5205 13.9685 73.5171 13.4813 73.5058 12.9949C73.5003 12.7552 73.4929 12.5156 73.4854 12.2766C73.463 11.6609 73.3803 11.029 73.3128 10.424C73.204 9.47348 73.0013 8.53911 72.8022 7.62089C72.566 6.51905 72.2092 5.48207 71.8151 4.48284C71.6538 4.07785 71.4549 3.65118 71.2334 3.3054C71.1131 3.11489 70.993 2.92754 70.8644 2.75285C70.7561 2.60572 70.6417 2.46753 70.5164 2.34402C70.3885 2.21848 70.2598 2.10017 70.1298 1.98706C69.9243 1.80819 69.7153 1.64208 69.4992 1.47993C69.1539 1.22602 68.7899 1.02624 68.4332 0.826351C67.5212 0.307805 66.5264 0.118873 65.558 0C65.4124 0.00723184 65.2733 0.00485889 65.1367 0.00248595L65.0323 0.000677985L64.9351 0C64.5912 0 64.2474 0.0318653 63.9051 0.0810192C63.6011 0.124636 63.2983 0.182039 62.9981 0.243058ZM76.1093 62.9601C68.4078 64.8477 63.4068 70.1404 63.4618 77.2939C63.4385 84.6993 68.5879 88.8185 77.0077 90.6237L81.7396 91.6419C82.0495 91.7097 82.3476 91.778 82.6339 91.8471C82.486 91.9764 82.3394 92.1092 82.1936 92.2442C82.0549 92.3722 81.9172 92.5019 81.7786 92.6321L81.6794 92.7255C80.0691 94.2163 78.4588 95.7124 76.8487 97.2085C76.619 97.4193 76.4 97.6507 76.1821 97.8809L76.1787 97.8843L76.1766 97.8867C76.1594 97.9049 76.142 97.9231 76.1247 97.9413C75.1471 96.8559 74.5896 95.3974 74.5027 93.5858H62.2556C62.257 93.921 62.2647 94.2511 62.2785 94.5761C62.291 94.8673 62.3086 95.1543 62.3313 95.4371C62.7322 100.458 64.7074 104.171 67.9222 106.688L67.5763 107.079C66.8306 107.921 66.0849 108.762 65.3403 109.604C64.3794 110.69 63.4598 111.845 62.529 112.98C61.668 114.031 60.8048 115.081 59.9449 116.136C59.1707 117.086 58.3992 118.039 57.6345 119.002C57.1735 119.583 56.7135 120.166 56.2534 120.749L56.248 120.755C54.1482 123.417 52.0477 126.08 49.8385 128.551C49.0276 129.426 48.1944 130.236 47.3461 131.03C46.5128 131.813 45.657 132.521 44.7525 133.126C44.5271 133.255 44.302 133.369 44.0693 133.471C43.6489 133.677 43.2097 133.795 42.7705 133.903C42.6172 133.926 42.4624 133.937 42.3073 133.938C42.2042 133.938 42.1007 133.934 41.9974 133.925C42.0912 133.941 42.185 133.963 42.279 133.979C42.0049 133.957 41.7421 133.882 41.4868 133.747C41.4526 133.723 41.4184 133.699 41.3845 133.674C41.3555 133.652 41.3265 133.63 41.2977 133.607C41.2207 133.545 41.1448 133.478 41.0703 133.406C41.0426 133.371 41.0155 133.335 40.9885 133.299C40.9346 133.227 40.8814 133.156 40.8263 133.088C40.7212 132.861 40.6385 132.618 40.5785 132.359C40.5871 132.389 40.5962 132.42 40.6052 132.45L40.6311 132.537C40.649 132.596 40.6669 132.656 40.6836 132.715C40.6161 132.467 40.5672 132.207 40.5334 131.948C40.5294 131.789 40.5273 131.631 40.5269 131.474C40.5262 131.133 40.5343 130.796 40.5502 130.457C40.5611 130.226 40.5756 129.994 40.5935 129.761C40.7137 128.621 40.8601 127.487 41.0213 126.358C41.0485 126.17 41.0753 125.982 41.102 125.794L41.1496 125.455C41.2685 124.608 41.3879 123.758 41.5319 122.918C41.6015 122.512 41.6717 122.106 41.7421 121.7C41.8126 121.293 41.8828 120.887 41.9523 120.482C41.9761 120.342 41.9983 120.203 42.0205 120.063C42.0647 119.785 42.1089 119.507 42.1662 119.234L42.1852 119.145C42.4942 117.689 42.8031 116.234 43.1121 114.773C43.2867 113.959 43.4874 113.168 43.6897 112.37L43.7352 112.191C44.0723 110.865 44.4062 109.543 44.7398 108.221L44.8313 107.859C44.9063 107.573 44.9926 107.298 45.0753 107.017L45.7283 104.748C45.8686 104.265 46.0086 103.781 46.1488 103.297V108.952H59.0454V65.8338C60.6224 61.3718 62.1897 56.9023 63.7527 52.4281C64.5477 50.1491 65.3143 47.8474 66.0742 45.5432H76.1093V62.9601ZM57.1898 64.0567V65.6884C55.6844 69.8992 54.1674 74.1023 52.6423 78.2994L52.2402 79.4046L52.2389 79.4087C51.0512 82.6742 49.8625 85.9429 48.7161 89.2418L48.7066 89.2689C48.4717 89.9426 48.237 90.6164 48.0044 91.2916V64.0567H57.1898ZM48.0044 97.3191C48.3034 96.3892 48.6022 95.4594 48.9 94.5295C49.542 92.5312 50.2476 90.576 50.9269 88.5991C51.3761 87.2958 51.8388 86.0048 52.3014 84.7145C52.5231 84.0958 52.7449 83.4774 52.9651 82.8578C53.2677 82.0103 53.5719 81.1628 53.8768 80.3154L54.3457 79.0123C54.5763 78.3713 54.8069 77.7304 55.037 77.0895C55.7573 75.0838 56.4747 73.0762 57.1898 71.0667V107.101H48.0044V97.3191ZM57.1821 62.2054V43.6918H64.8486L65.4792 41.7989C65.5675 41.5339 65.6588 41.2689 65.7503 41.0034C65.9275 40.4894 66.1053 39.973 66.2638 39.4495L66.9393 37.2079L66.9941 37.027H57.1821V18.5135H47.9967V62.2054H57.1821ZM71.3473 106.675C74.2913 108.175 78.1265 108.952 82.7603 108.952C88.5473 108.952 92.9161 107.701 95.7974 105.558C98.6026 103.472 100.18 100.41 100.203 96.2712C100.18 93.062 99.2255 90.4803 97.222 88.4305C96.4355 87.6258 95.4631 86.8784 94.2782 86.2016C94.0766 86.3391 93.8752 86.4767 93.6736 86.6142L91.9752 87.7727C91.6787 87.9781 91.3935 88.2103 91.1045 88.4372C90.7785 88.6931 90.4519 88.9492 90.1248 89.2046L89.7354 89.5083C89.4948 89.6954 89.2543 89.8822 89.0137 90.0683C88.4359 90.5182 87.8673 90.9901 87.301 91.4685C87.6653 91.6484 88.0003 91.8389 88.3059 92.0419C89.0443 92.5324 89.6636 93.1292 90.096 93.8718C90.5341 94.624 90.7217 95.4249 90.7389 96.2305L90.7398 96.2687L90.7391 96.3069C90.7033 98.1079 89.8278 99.6527 88.2905 100.677C86.8233 101.654 84.8519 102.102 82.5746 102.102C80.4641 102.102 78.5319 101.722 76.9268 100.869C76.2566 101.559 75.5863 102.25 74.9161 102.94C73.9287 103.956 72.9413 104.973 71.9541 105.991C71.7519 106.219 71.5496 106.447 71.3473 106.675ZM74.8334 99.2759L73.2453 100.914C73.0478 101.117 72.85 101.32 72.6525 101.522L72.6498 101.525C71.8151 102.381 70.9815 103.236 70.1749 104.143L69.153 105.298C69.1123 105.266 69.0717 105.235 69.0314 105.203C66.3395 103.08 64.5824 99.9273 64.193 95.4371H72.8767C73.1993 96.9172 73.8469 98.2192 74.8334 99.2759ZM78.3222 99.4852C79.4967 99.9921 80.9228 100.251 82.5746 100.251C86.7035 100.251 88.8373 98.6076 88.8837 96.2703C88.8518 94.7917 87.9878 93.7062 85.7354 92.7965C85.5888 92.9204 85.442 93.0444 85.2952 93.1684C84.9629 93.4493 84.6306 93.7302 84.2993 94.011C84.21 94.0881 84.1192 94.1636 84.0281 94.2395L84.0247 94.2425C83.868 94.3728 83.711 94.5037 83.5599 94.643C82.4112 95.7015 81.2664 96.7601 80.118 97.8242L79.8251 98.0937L79.1793 98.69C78.9007 98.9478 78.6221 99.2064 78.3426 99.4661C78.3358 99.4724 78.329 99.4788 78.3222 99.4852ZM84.3545 90.3824C83.6702 90.1886 82.9309 90.0071 82.1372 89.8335L77.3975 88.8136C73.3642 87.9489 70.3345 86.5718 68.3362 84.7069C66.3977 82.8976 65.3073 80.5185 65.3174 77.2997V77.2797C65.2873 73.3713 66.9771 70.1333 69.9436 67.8251C72.946 65.4889 77.3348 64.0567 82.6674 64.0567C88.102 64.0567 92.3177 65.51 95.1455 67.867C97.5094 69.8373 99.0126 72.5261 99.433 75.8129H90.6077C90.2421 74.577 89.5678 73.472 88.5029 72.6156C87.0093 71.4143 84.999 70.9067 82.6674 70.9067C80.4757 70.9067 78.6187 71.3197 77.2528 72.2564C75.8117 73.2445 75.0887 74.7034 75.0601 76.3107C75.0223 77.1613 75.1831 77.9945 75.5942 78.7678C76.0056 79.5413 76.6142 80.1561 77.3239 80.6496C78.6932 81.6017 80.6274 82.2291 82.9331 82.7154L86.8249 83.5474C88.4875 83.9035 89.9621 84.328 91.2653 84.8125C91.1867 84.8667 91.1079 84.9208 91.0293 84.975C90.4587 85.3693 89.9071 85.823 89.3515 86.2659C88.6533 86.8168 87.9514 87.3678 87.2532 87.9132C87.1663 87.9825 87.0802 88.0556 86.9946 88.1301C86.94 88.1776 86.8856 88.2256 86.8315 88.2734L86.7316 88.3615C86.2437 88.7774 85.7519 89.1932 85.264 89.6092L84.3545 90.3824ZM87.1502 62.2054V18.5135H77.965V37.027H68.7757L68.0993 39.2766C67.9491 39.7789 67.8064 40.2865 67.6451 40.7781C67.3237 41.7478 67.0036 42.7196 66.6838 43.6918H77.965V62.2054H87.1502ZM108.744 79.0847V107.749H117.93V93.6783H121.9C122.016 92.3263 122.12 90.965 122.138 89.6037C122.161 88.1508 122.119 86.7087 122.018 85.2613C121.951 84.6239 121.879 83.9866 121.744 83.3709C121.694 83.116 121.637 82.8629 121.576 82.6128C121.532 82.4336 121.485 82.2559 121.436 82.08C121.474 82.2096 121.512 82.3339 121.549 82.4635C121.433 82.0369 121.297 81.6209 121.144 81.2158C121.069 81.0236 120.992 80.8348 120.909 80.6504C120.846 80.5085 120.781 80.3691 120.712 80.2329C120.562 79.9736 120.397 79.7252 120.224 79.4984C120.132 79.3822 120.037 79.2662 119.942 79.15L119.935 79.1419C119.766 78.9637 119.59 78.7962 119.406 78.645C119.323 78.5872 119.242 78.5293 119.161 78.4716L119.019 78.3695C118.787 78.2399 118.546 78.1319 118.306 78.04C118.039 77.9374 117.773 77.8564 117.503 77.7916C116.703 77.6782 115.9 77.6242 115.097 77.6944C114.32 77.7647 113.543 77.8673 112.77 78.0023L112.751 78.006C112.156 78.1235 111.559 78.2417 110.972 78.4181C110.578 78.537 110.18 78.6558 109.785 78.7746L108.744 79.0847ZM124.145 93.6783C124.253 92.3219 124.333 90.9648 124.375 89.5983C124.42 88.1131 124.349 86.6116 124.24 85.1316C124.221 84.8566 124.194 84.5826 124.162 84.3091C124.14 84.1169 124.116 83.9249 124.092 83.7331C124.07 83.5654 124.048 83.3979 124.026 83.2305C124.013 83.1353 123.999 83.0406 123.983 82.9464C123.947 82.7336 123.904 82.5229 123.857 82.3137C123.798 82.0476 123.732 81.7842 123.666 81.5227L123.591 81.2267C123.448 80.665 123.261 80.1303 123.073 79.5956C122.825 78.888 122.472 78.2724 122.119 77.6674C121.988 77.4406 121.836 77.2326 121.676 77.0382C121.539 76.8716 121.396 76.7151 121.256 76.5655L120.907 76.1929C120.758 76.0454 120.605 75.9094 120.446 75.7857C120.338 75.7012 120.228 75.6226 120.115 75.5501C119.766 75.2965 119.385 75.1298 119.01 74.9657L118.914 74.9237C118.501 74.7401 118.062 74.632 117.63 74.5672C116.624 74.416 115.633 74.4051 114.627 74.4916C113.561 74.5833 112.503 74.7994 111.448 75.037C111.038 75.1275 110.629 75.237 110.222 75.3551C109.869 75.4577 109.516 75.5669 109.164 75.6759C109.024 75.7193 108.884 75.7626 108.744 75.8054V64.0567H127.393C132.277 64.0567 136.199 65.5931 138.887 68.1411C141.566 70.6807 143.166 74.3641 143.166 78.9602C143.166 83.6008 141.53 87.2232 138.791 89.7005C136.033 92.1957 131.988 93.6783 126.929 93.6783H124.145ZM127.417 62.2054V55.5405H106.17V43.6918H125.747V37.027H106.17V25.1783H127.51V18.5135H96.985V62.2054H127.417ZM148.159 107.749H152.926L155.663 98.677H166.245C166.402 97.5225 166.593 96.3775 166.827 95.2533C167.094 93.9678 167.364 92.6769 167.631 91.3861C167.698 91.0512 167.788 90.7217 167.867 90.3924C167.943 90.0787 168.017 89.765 168.092 89.4518L168.099 89.4216C168.196 89.0115 168.294 88.6019 168.393 88.1941C168.533 87.6046 168.674 87.0167 168.816 86.4286L169.143 85.0722L169.228 84.723C169.531 83.4789 169.834 82.2359 170.037 80.9566C169.853 81.1207 169.674 81.29 169.496 81.4643L169.402 81.5572L169.256 81.7019C167.646 83.5005 166.032 85.3045 164.47 87.184C163.88 87.89 163.291 88.5982 162.703 89.3058L161.741 90.4625C161.268 91.0364 160.804 91.6255 160.34 92.2142L160.332 92.2251L160.027 92.6112C159.914 92.754 159.801 92.8967 159.688 93.0389C157.933 95.2433 156.194 97.4766 154.456 99.7101C153.277 101.225 152.097 102.74 150.913 104.246C150.038 105.353 149.167 106.46 148.296 107.573C148.25 107.631 148.205 107.69 148.159 107.749ZM168.162 98.677C168.211 98.3528 168.262 98.0291 168.314 97.7053C168.419 97.0302 168.535 96.3659 168.667 95.7015L169.406 92.0235C169.459 91.7551 169.523 91.4889 169.588 91.2235L169.612 91.1274C169.645 90.992 169.678 90.8569 169.71 90.7217C169.813 90.2821 169.917 89.8424 170.02 89.4039L170.221 88.5559C170.468 87.4974 170.724 86.4333 170.979 85.3747C171.114 84.8021 171.253 84.2297 171.38 83.6571C171.534 82.9767 171.673 82.3069 171.786 81.6102L171.865 81.1132C171.902 80.8324 171.932 80.5462 171.955 80.2653C171.929 79.9035 171.94 79.4714 171.801 79.1473L171.742 79.0129L171.737 79.0016C171.719 78.9615 171.701 78.9215 171.685 78.8827C171.606 78.6828 171.493 78.5261 171.358 78.4127C171.328 78.383 171.299 78.3519 171.27 78.3208L171.23 78.2791C171.214 78.2622 171.198 78.2455 171.181 78.2291C171.148 78.2011 171.114 78.1763 171.079 78.1548C171.05 78.1373 171.021 78.1221 170.992 78.1091C170.905 78.0703 170.814 78.0509 170.72 78.0509C170.54 77.986 170.359 77.986 170.176 78.0509C169.95 78.0779 169.74 78.1696 169.537 78.3101C169.237 78.4721 168.971 78.7206 168.697 78.9637C168.343 79.2779 168.015 79.6392 167.686 80.0002L167.685 80.0016C167.613 80.0807 167.541 80.1598 167.469 80.2383C167.178 80.5523 166.891 80.8664 166.603 81.1805L166.531 81.2591C165.915 81.9288 165.3 82.6093 164.692 83.2953C164.539 83.4675 164.386 83.6387 164.232 83.8099C163.999 84.0701 163.766 84.3305 163.534 84.5948C163.416 84.7294 163.299 84.865 163.183 85.002C162.391 85.931 161.599 86.8601 160.807 87.7944C160.378 88.2994 159.953 88.8117 159.53 89.3279C159.068 89.8927 158.608 90.462 158.148 91.0312C157.837 91.4165 157.526 91.8017 157.215 92.1854C155.968 93.7193 154.74 95.2805 153.511 96.842C152.693 97.8813 151.875 98.9206 151.051 99.9522L150.737 100.346C149.596 101.776 148.451 103.21 147.306 104.64C146.622 105.494 145.947 106.358 145.249 107.19L144.782 107.749H142.955L157.41 64.0567H172.355L186.81 107.749H176.839L174.102 98.677H168.162ZM200.841 107.749H208.026V102.824C205.656 104.542 203.269 106.214 200.841 107.749ZM208.026 99.3925C207.566 99.7295 207.105 100.066 206.645 100.4C204.134 102.221 201.603 103.972 199.026 105.588V70.7216H184.738V64.0567H222.314V70.7216H208.026V99.3925ZM228.311 87.4554C228.723 93.8462 230.939 98.6991 234.255 102.033C237.946 105.744 243.172 107.749 249.302 107.749C261.023 107.749 267.294 100.453 268.771 93.7557L259.305 93.6888C258.766 95.4229 257.808 96.9267 256.416 98.0643C254.624 99.5278 252.278 100.251 249.581 100.251C245.956 100.251 242.89 98.9424 240.789 96.2193C238.748 93.5729 237.798 89.8231 237.798 85.2547C237.798 83.1438 238.016 81.1774 238.472 79.4046C237.421 80.2399 236.37 81.0742 235.318 81.9073L229.609 86.428C229.177 86.7701 228.745 87.1146 228.311 87.4554ZM242.401 72.7244C238.628 75.7321 234.853 78.7347 231.076 81.7289C230.137 82.4743 229.203 83.2262 228.265 83.969C228.522 77.1045 230.846 71.9461 234.353 68.4572C238.083 64.746 243.315 62.7608 249.302 62.7608C251.07 62.7608 252.744 62.9148 254.315 63.212C250.479 66.2781 246.642 69.3432 242.803 72.4034C242.666 72.5068 242.532 72.6137 242.401 72.7244ZM249.928 70.2611C252.671 70.31 255.009 71.1533 256.737 72.7464C258.106 74.0079 258.987 75.6431 259.419 77.479H268.808C268.02 73.0242 265.965 69.5684 263.031 67.1351C261.492 65.8589 259.68 64.8385 257.631 64.1053C255.992 65.4141 254.354 66.723 252.715 68.0318L250.307 69.9575C250.181 70.0587 250.054 70.1599 249.928 70.2611ZM20.1327 64.0567H16.3422C15.9236 65.5972 15.5401 67.1587 15.2273 68.7502C14.837 70.7486 14.5217 72.7632 14.3154 74.8156C14.2064 76.1659 14.1165 77.5323 14.1427 78.8934C14.1613 80.0115 14.1989 81.1241 14.244 82.2366C14.2628 82.685 13.9699 83.063 13.6698 83.063C13.3431 83.063 13.1141 82.685 13.0953 82.2366L13.0851 81.9942C13.0206 80.4861 12.9558 78.9692 13.009 77.4622C13.0654 75.9444 13.1667 74.4213 13.3581 72.9198C13.7463 69.8956 14.3197 66.9302 15.0728 64.0567H3.89607V107.749H20.3182C27.1722 107.749 32.5786 105.652 36.2672 101.993C39.9536 98.3354 42.1218 92.9214 42.1218 85.9027C42.1218 78.8842 39.9538 73.4727 36.2478 69.8164C32.5383 66.1572 27.0856 64.0567 20.1327 64.0567ZM25.1437 62.2054V42.1437L24.9698 42.4619C24.6073 43.1248 24.2447 43.7878 23.8829 44.4508L23.3126 45.6434C23.1477 45.9881 22.9828 46.332 22.8169 46.676L22.6133 47.1045C22.452 47.4444 22.2901 47.7853 22.1263 48.1235C22.0513 48.2801 21.965 48.4368 21.8973 48.5989C21.6986 49.0775 21.4998 49.5544 21.3011 50.0315C21.1545 50.3834 21.008 50.7355 20.8614 51.0887C20.6587 51.5695 20.4523 52.0502 20.2646 52.5416C20.024 53.1814 19.7819 53.8191 19.5402 54.4561L19.0785 55.6742C19.0248 55.8196 18.97 55.9638 18.9152 56.1081L18.9111 56.1196L18.9057 56.1339C18.7949 56.4258 18.6842 56.7179 18.5831 57.0191C18.3544 57.7091 18.124 58.3991 17.8932 59.0892L17.4922 60.2863C17.2784 60.9236 17.0657 61.558 16.8666 62.2054H25.1437ZM1.85562 18.5135H39.0049L38.9571 18.5743C38.5992 19.0332 38.2413 19.4932 37.8834 19.9532L37.7937 20.0681C37.427 20.5392 37.0603 21.0103 36.6938 21.48C36.5773 21.6305 36.46 21.7798 36.3427 21.929C36.1746 22.1429 36.0067 22.3566 35.8416 22.5739C35.7168 22.7378 35.5938 22.9038 35.4737 23.0734C35.237 23.4069 35.0003 23.7396 34.7636 24.0723C34.5013 24.441 34.2392 24.8095 33.9774 25.1783H25.1437V39.0032L25.1233 39.0413C24.82 39.6042 24.5167 40.167 24.2132 40.7349L23.2786 42.4686C23.2251 42.5668 23.1703 42.6645 23.1155 42.7623C22.9891 42.9878 22.8618 43.2144 22.7494 43.4516C22.498 43.9863 22.2475 44.521 21.997 45.0557L21.5775 45.951L21.2442 46.6598L21.1199 46.9267C21.0479 47.0819 20.9756 47.2376 20.9024 47.3927C20.8614 47.48 20.8202 47.567 20.7788 47.6536C20.7491 47.7196 20.7205 47.7916 20.6927 47.8622C20.6748 47.9073 20.6573 47.9518 20.6399 47.9939L20.1744 49.1497L19.9443 49.7142C19.6557 50.4199 19.3678 51.1239 19.101 51.8448C18.9025 52.383 18.7034 52.9203 18.5043 53.4575C18.2137 54.2411 17.9228 55.0242 17.6334 55.8092C17.5876 55.9303 17.5464 56.0551 17.5063 56.1808C17.4639 56.313 17.4225 56.446 17.3781 56.5762L17.0132 57.6892C16.8759 58.109 16.7386 58.5289 16.6011 58.9473C16.5309 59.1639 16.46 59.3806 16.3887 59.5973C16.3073 59.8447 16.2256 60.0922 16.1438 60.3397V25.1783H1.85562V18.5135ZM39.4319 25.1783H36.0815C36.3008 24.8724 36.5207 24.5658 36.7425 24.2616C36.8981 24.0464 37.0594 23.8385 37.2229 23.6337C37.4617 23.3346 37.7054 23.0421 37.9437 22.7439C38.4379 22.1137 38.9347 21.4835 39.4319 20.8535V25.1783ZM26.9993 27.0297H32.6568C32.4654 27.2976 32.276 27.5683 32.0919 27.8479C31.8812 28.1671 31.6705 28.487 31.4599 28.8071C31.0397 29.4455 30.6188 30.0846 30.1964 30.7213C30.0521 30.9382 29.9085 31.155 29.7655 31.3718L29.6684 31.519L29.1904 32.2444C29.1458 32.312 29.1005 32.379 29.055 32.4461C28.9478 32.6045 28.8402 32.7634 28.7401 32.9303L26.9993 35.8277V27.0297ZM59.0377 45.5432H64.2315L64.1452 45.8018C63.7701 46.9273 63.395 48.0525 63.0208 49.1767C62.927 49.4607 62.8283 49.7399 62.729 50.0207L62.7182 50.0516C62.6702 50.1877 62.6219 50.3245 62.5741 50.4622C62.0937 51.8341 61.6094 53.2113 61.1251 54.5832C60.4322 56.5571 59.7363 58.5289 59.0377 60.4989V45.5432ZM181.384 113.914C181.346 113.919 181.309 113.93 181.271 113.936C181.309 113.925 181.346 113.919 181.384 113.914ZM167.791 105.383C167.794 105.424 167.797 105.466 167.8 105.51L167.798 105.488L167.798 105.48C167.796 105.448 167.793 105.416 167.791 105.383ZM44.9738 133.023C44.9063 133.066 44.8388 133.109 44.7675 133.147L44.8304 133.109C44.8791 133.079 44.9265 133.049 44.9738 133.023ZM40.8413 133.174C40.8598 133.211 40.8793 133.246 40.8988 133.282L40.909 133.3C40.9292 133.337 40.9495 133.374 40.9688 133.412C40.9575 133.393 40.9464 133.374 40.9355 133.354C40.9031 133.297 40.8721 133.239 40.8413 133.174ZM40.4924 131.681L40.5024 131.778C40.5069 131.819 40.5112 131.859 40.5146 131.9C40.5103 131.866 40.5065 131.832 40.5031 131.797C40.4992 131.759 40.4958 131.719 40.4924 131.681ZM41.5976 133.864L41.5817 133.856C41.57 133.849 41.5582 133.841 41.5469 133.833C41.5639 133.844 41.5808 133.854 41.5976 133.864ZM41.5976 133.864C41.6216 133.879 41.6449 133.893 41.6671 133.909C41.6502 133.898 41.6332 133.887 41.6164 133.877L41.5976 133.864Z" fill="#403D30"/>
<path fill-rule="evenodd" clip-rule="evenodd" d="M275.135 109.6H288.032V91.0865H305.104V109.6H318V62.2054H305.104V80.7189H288.032V62.2054H275.135V109.6ZM306.959 89.2351H286.176V107.749H276.991V64.0567H286.176V82.5702H306.959V64.0567H316.144V107.749H306.959V89.2351Z" fill="#403D30"/>
</svg>
